<?xml version="1.0" encoding="UTF-8" standalone="no"?>
<!DOCTYPE svg PUBLIC "-//W3C//DTD SVG 1.1//EN"
 "http://www.w3.org/Graphics/SVG/1.1/DTD/svg11.dtd">
<!-- Generated by graphviz version 12.2.1 (20241206.2353)
 -->
<!-- Pages: 1 -->
<svg width="1914pt" height="183pt"
 viewBox="0.00 0.00 1913.50 183.00" xmlns="http://www.w3.org/2000/svg" xmlns:xlink="http://www.w3.org/1999/xlink">
<g id="graph0" class="graph" transform="scale(1 1) rotate(0) translate(4 179)">
<polygon fill="white" stroke="none" points="-4,4 -4,-179 1909.5,-179 1909.5,4 -4,4"/>
<!-- 4389952576 -->
<g id="node1" class="node">
<title>4389952576</title>
<polygon fill="none" stroke="black" points="0,-138.5 0,-174.5 161,-174.5 161,-138.5 0,-138.5"/>
<text text-anchor="middle" x="39.88" y="-151.7" font-family="Times,serif" font-size="14.00">data 3.0000</text>
<polyline fill="none" stroke="black" points="79.75,-139 79.75,-174.5"/>
<text text-anchor="middle" x="120.38" y="-151.7" font-family="Times,serif" font-size="14.00">grad 0.0197</text>
</g>
<!-- 4391952528+ -->
<g id="node5" class="node">
<title>4391952528+</title>
<ellipse fill="none" stroke="black" cx="224" cy="-128.5" rx="27" ry="18"/>
<text text-anchor="middle" x="224" y="-123.45" font-family="Times,serif" font-size="14.00">+</text>
</g>
<!-- 4389952576&#45;&gt;4391952528+ -->
<g id="edge12" class="edge">
<title>4389952576&#45;&gt;4391952528+</title>
<path fill="none" stroke="black" d="M161.35,-140.7C170.09,-138.97 178.64,-137.28 186.46,-135.73"/>
<polygon fill="black" stroke="black" points="187.08,-139.18 196.21,-133.8 185.72,-132.31 187.08,-139.18"/>
</g>
<!-- 4391953488 -->
<g id="node2" class="node">
<title>4391953488</title>
<polygon fill="none" stroke="black" points="1744.5,-54.5 1744.5,-90.5 1905.5,-90.5 1905.5,-54.5 1744.5,-54.5"/>
<text text-anchor="middle" x="1784.38" y="-67.7" font-family="Times,serif" font-size="14.00">data 0.9951</text>
<polyline fill="none" stroke="black" points="1824.25,-55 1824.25,-90.5"/>
<text text-anchor="middle" x="1864.88" y="-67.7" font-family="Times,serif" font-size="14.00">grad 1.0000</text>
</g>
<!-- 4391953488tanh -->
<g id="node3" class="node">
<title>4391953488tanh</title>
<ellipse fill="none" stroke="black" cx="1681.5" cy="-72.5" rx="27" ry="18"/>
<text text-anchor="middle" x="1681.5" y="-67.45" font-family="Times,serif" font-size="14.00">tanh</text>
</g>
<!-- 4391953488tanh&#45;&gt;4391953488 -->
<g id="edge1" class="edge">
<title>4391953488tanh&#45;&gt;4391953488</title>
<path fill="none" stroke="black" d="M1708.78,-72.5C1715.9,-72.5 1724.02,-72.5 1732.58,-72.5"/>
<polygon fill="black" stroke="black" points="1732.54,-76 1742.54,-72.5 1732.54,-69 1732.54,-76"/>
</g>
<!-- 4391952528 -->
<g id="node4" class="node">
<title>4391952528</title>
<polygon fill="none" stroke="black" points="289.25,-110.5 289.25,-146.5 450.25,-146.5 450.25,-110.5 289.25,-110.5"/>
<text text-anchor="middle" x="329.12" y="-123.7" font-family="Times,serif" font-size="14.00">data 5.0000</text>
<polyline fill="none" stroke="black" points="369,-111 369,-146.5"/>
<text text-anchor="middle" x="409.62" y="-123.7" font-family="Times,serif" font-size="14.00">grad 0.0197</text>
</g>
<!-- 4391952672&#45; -->
<g id="node10" class="node">
<title>4391952672&#45;</title>
<ellipse fill="none" stroke="black" cx="515.5" cy="-128.5" rx="27" ry="18"/>
<text text-anchor="middle" x="515.5" y="-123.45" font-family="Times,serif" font-size="14.00">&#45;</text>
</g>
<!-- 4391952528&#45;&gt;4391952672&#45; -->
<g id="edge18" class="edge">
<title>4391952528&#45;&gt;4391952672&#45;</title>
<path fill="none" stroke="black" d="M450.61,-128.5C459.73,-128.5 468.67,-128.5 476.85,-128.5"/>
<polygon fill="black" stroke="black" points="476.69,-132 486.69,-128.5 476.69,-125 476.69,-132"/>
</g>
<!-- 4391952528+&#45;&gt;4391952528 -->
<g id="edge2" class="edge">
<title>4391952528+&#45;&gt;4391952528</title>
<path fill="none" stroke="black" d="M251.37,-128.5C259.17,-128.5 268.2,-128.5 277.7,-128.5"/>
<polygon fill="black" stroke="black" points="277.52,-132 287.52,-128.5 277.52,-125 277.52,-132"/>
</g>
<!-- 4391953056 -->
<g id="node6" class="node">
<title>4391953056</title>
<polygon fill="none" stroke="black" points="1170.5,-82.5 1170.5,-118.5 1331.5,-118.5 1331.5,-82.5 1170.5,-82.5"/>
<text text-anchor="middle" x="1210.38" y="-95.7" font-family="Times,serif" font-size="14.00">data 9.0000</text>
<polyline fill="none" stroke="black" points="1250.25,-83 1250.25,-118.5"/>
<text text-anchor="middle" x="1290.88" y="-95.7" font-family="Times,serif" font-size="14.00">grad 0.0033</text>
</g>
<!-- 4391953344* -->
<g id="node17" class="node">
<title>4391953344*</title>
<ellipse fill="none" stroke="black" cx="1394.5" cy="-72.5" rx="27" ry="18"/>
<text text-anchor="middle" x="1394.5" y="-67.45" font-family="Times,serif" font-size="14.00">*</text>
</g>
<!-- 4391953056&#45;&gt;4391953344* -->
<g id="edge17" class="edge">
<title>4391953056&#45;&gt;4391953344*</title>
<path fill="none" stroke="black" d="M1331.85,-84.7C1340.59,-82.97 1349.14,-81.28 1356.96,-79.73"/>
<polygon fill="black" stroke="black" points="1357.58,-83.18 1366.71,-77.8 1356.22,-76.31 1357.58,-83.18"/>
</g>
<!-- 4391953056**2 -->
<g id="node7" class="node">
<title>4391953056**2</title>
<ellipse fill="none" stroke="black" cx="1107.5" cy="-100.5" rx="27" ry="18"/>
<text text-anchor="middle" x="1107.5" y="-95.45" font-family="Times,serif" font-size="14.00">**2</text>
</g>
<!-- 4391953056**2&#45;&gt;4391953056 -->
<g id="edge3" class="edge">
<title>4391953056**2&#45;&gt;4391953056</title>
<path fill="none" stroke="black" d="M1134.78,-100.5C1141.9,-100.5 1150.02,-100.5 1158.58,-100.5"/>
<polygon fill="black" stroke="black" points="1158.54,-104 1168.54,-100.5 1158.54,-97 1158.54,-104"/>
</g>
<!-- 4374984416 -->
<g id="node8" class="node">
<title>4374984416</title>
<polygon fill="none" stroke="black" points="0,-83.5 0,-119.5 161,-119.5 161,-83.5 0,-83.5"/>
<text text-anchor="middle" x="39.88" y="-96.7" font-family="Times,serif" font-size="14.00">data 2.0000</text>
<polyline fill="none" stroke="black" points="79.75,-84 79.75,-119.5"/>
<text text-anchor="middle" x="120.38" y="-96.7" font-family="Times,serif" font-size="14.00">grad 0.0197</text>
</g>
<!-- 4374984416&#45;&gt;4391952528+ -->
<g id="edge8" class="edge">
<title>4374984416&#45;&gt;4391952528+</title>
<path fill="none" stroke="black" d="M161.35,-116.74C170.09,-118.4 178.64,-120.04 186.46,-121.53"/>
<polygon fill="black" stroke="black" points="185.73,-124.95 196.21,-123.39 187.04,-118.08 185.73,-124.95"/>
</g>
<!-- 4391952672 -->
<g id="node9" class="node">
<title>4391952672</title>
<polygon fill="none" stroke="black" points="578.5,-110.5 578.5,-146.5 748.5,-146.5 748.5,-110.5 578.5,-110.5"/>
<text text-anchor="middle" x="620.62" y="-123.7" font-family="Times,serif" font-size="14.00">data &#45;5.0000</text>
<polyline fill="none" stroke="black" points="662.75,-111 662.75,-146.5"/>
<text text-anchor="middle" x="705.62" y="-123.7" font-family="Times,serif" font-size="14.00">grad &#45;0.0197</text>
</g>
<!-- 4391952864+ -->
<g id="node19" class="node">
<title>4391952864+</title>
<ellipse fill="none" stroke="black" cx="811.5" cy="-100.5" rx="27" ry="18"/>
<text text-anchor="middle" x="811.5" y="-95.45" font-family="Times,serif" font-size="14.00">+</text>
</g>
<!-- 4391952672&#45;&gt;4391952864+ -->
<g id="edge14" class="edge">
<title>4391952672&#45;&gt;4391952864+</title>
<path fill="none" stroke="black" d="M748.58,-112.37C757.42,-110.68 766.04,-109.03 773.9,-107.52"/>
<polygon fill="black" stroke="black" points="774.53,-110.96 783.69,-105.64 773.21,-104.09 774.53,-110.96"/>
</g>
<!-- 4391952672&#45;&#45;&gt;4391952672 -->
<g id="edge4" class="edge">
<title>4391952672&#45;&#45;&gt;4391952672</title>
<path fill="none" stroke="black" d="M542.94,-128.5C550.02,-128.5 558.11,-128.5 566.67,-128.5"/>
<polygon fill="black" stroke="black" points="566.62,-132 576.62,-128.5 566.62,-125 566.62,-132"/>
</g>
<!-- 4391951184 -->
<g id="node11" class="node">
<title>4391951184</title>
<polygon fill="none" stroke="black" points="287,-55.5 287,-91.5 452.5,-91.5 452.5,-55.5 287,-55.5"/>
<text text-anchor="middle" x="326.88" y="-68.7" font-family="Times,serif" font-size="14.00">data 2.0000</text>
<polyline fill="none" stroke="black" points="366.75,-56 366.75,-91.5"/>
<text text-anchor="middle" x="409.62" y="-68.7" font-family="Times,serif" font-size="14.00">grad &#45;0.0197</text>
</g>
<!-- 4391951280* -->
<g id="node15" class="node">
<title>4391951280*</title>
<ellipse fill="none" stroke="black" cx="515.5" cy="-73.5" rx="27" ry="18"/>
<text text-anchor="middle" x="515.5" y="-68.45" font-family="Times,serif" font-size="14.00">*</text>
</g>
<!-- 4391951184&#45;&gt;4391951280* -->
<g id="edge13" class="edge">
<title>4391951184&#45;&gt;4391951280*</title>
<path fill="none" stroke="black" d="M452.7,-73.5C461.14,-73.5 469.4,-73.5 476.98,-73.5"/>
<polygon fill="black" stroke="black" points="476.77,-77 486.77,-73.5 476.77,-70 476.77,-77"/>
</g>
<!-- 4391953296 -->
<g id="node12" class="node">
<title>4391953296</title>
<polygon fill="none" stroke="black" points="1170.5,-27.5 1170.5,-63.5 1331.5,-63.5 1331.5,-27.5 1170.5,-27.5"/>
<text text-anchor="middle" x="1210.38" y="-40.7" font-family="Times,serif" font-size="14.00">data 0.3333</text>
<polyline fill="none" stroke="black" points="1250.25,-28 1250.25,-63.5"/>
<text text-anchor="middle" x="1290.88" y="-40.7" font-family="Times,serif" font-size="14.00">grad 0.0888</text>
</g>
<!-- 4391953296&#45;&gt;4391953344* -->
<g id="edge11" class="edge">
<title>4391953296&#45;&gt;4391953344*</title>
<path fill="none" stroke="black" d="M1331.85,-60.74C1340.59,-62.4 1349.14,-64.04 1356.96,-65.53"/>
<polygon fill="black" stroke="black" points="1356.23,-68.95 1366.71,-67.39 1357.54,-62.08 1356.23,-68.95"/>
</g>
<!-- 4372559776 -->
<g id="node13" class="node">
<title>4372559776</title>
<polygon fill="none" stroke="black" points="287,-0.5 287,-36.5 452.5,-36.5 452.5,-0.5 287,-0.5"/>
<text text-anchor="middle" x="326.88" y="-13.7" font-family="Times,serif" font-size="14.00">data 1.0000</text>
<polyline fill="none" stroke="black" points="366.75,-1 366.75,-36.5"/>
<text text-anchor="middle" x="409.62" y="-13.7" font-family="Times,serif" font-size="14.00">grad &#45;0.0395</text>
</g>
<!-- 4372559776&#45;&gt;4391951280* -->
<g id="edge16" class="edge">
<title>4372559776&#45;&gt;4391951280*</title>
<path fill="none" stroke="black" d="M426.38,-36.88C435.16,-39.97 444.11,-43.24 452.5,-46.5 462.28,-50.3 472.79,-54.73 482.32,-58.9"/>
<polygon fill="black" stroke="black" points="480.64,-61.98 491.2,-62.83 483.47,-55.58 480.64,-61.98"/>
</g>
<!-- 4391951280 -->
<g id="node14" class="node">
<title>4391951280</title>
<polygon fill="none" stroke="black" points="580.75,-55.5 580.75,-91.5 746.25,-91.5 746.25,-55.5 580.75,-55.5"/>
<text text-anchor="middle" x="620.62" y="-68.7" font-family="Times,serif" font-size="14.00">data 2.0000</text>
<polyline fill="none" stroke="black" points="660.5,-56 660.5,-91.5"/>
<text text-anchor="middle" x="703.38" y="-68.7" font-family="Times,serif" font-size="14.00">grad &#45;0.0197</text>
</g>
<!-- 4391951280&#45;&gt;4391952864+ -->
<g id="edge9" class="edge">
<title>4391951280&#45;&gt;4391952864+</title>
<path fill="none" stroke="black" d="M746.46,-88.66C756.01,-90.42 765.34,-92.15 773.8,-93.71"/>
<polygon fill="black" stroke="black" points="773.16,-97.15 783.63,-95.53 774.43,-90.27 773.16,-97.15"/>
</g>
<!-- 4391951280*&#45;&gt;4391951280 -->
<g id="edge5" class="edge">
<title>4391951280*&#45;&gt;4391951280</title>
<path fill="none" stroke="black" d="M542.94,-73.5C550.68,-73.5 559.61,-73.5 569.04,-73.5"/>
<polygon fill="black" stroke="black" points="568.78,-77 578.78,-73.5 568.78,-70 568.78,-77"/>
</g>
<!-- 4391953344 -->
<g id="node16" class="node">
<title>4391953344</title>
<polygon fill="none" stroke="black" points="1457.5,-54.5 1457.5,-90.5 1618.5,-90.5 1618.5,-54.5 1457.5,-54.5"/>
<text text-anchor="middle" x="1497.38" y="-67.7" font-family="Times,serif" font-size="14.00">data 3.0000</text>
<polyline fill="none" stroke="black" points="1537.25,-55 1537.25,-90.5"/>
<text text-anchor="middle" x="1577.88" y="-67.7" font-family="Times,serif" font-size="14.00">grad 0.0099</text>
</g>
<!-- 4391953344&#45;&gt;4391953488tanh -->
<g id="edge10" class="edge">
<title>4391953344&#45;&gt;4391953488tanh</title>
<path fill="none" stroke="black" d="M1618.85,-72.5C1627.24,-72.5 1635.46,-72.5 1643.02,-72.5"/>
<polygon fill="black" stroke="black" points="1642.78,-76 1652.78,-72.5 1642.78,-69 1642.78,-76"/>
</g>
<!-- 4391953344*&#45;&gt;4391953344 -->
<g id="edge6" class="edge">
<title>4391953344*&#45;&gt;4391953344</title>
<path fill="none" stroke="black" d="M1421.78,-72.5C1428.9,-72.5 1437.02,-72.5 1445.58,-72.5"/>
<polygon fill="black" stroke="black" points="1445.54,-76 1455.54,-72.5 1445.54,-69 1445.54,-76"/>
</g>
<!-- 4391952864 -->
<g id="node18" class="node">
<title>4391952864</title>
<polygon fill="none" stroke="black" points="874.5,-82.5 874.5,-118.5 1044.5,-118.5 1044.5,-82.5 874.5,-82.5"/>
<text text-anchor="middle" x="916.62" y="-95.7" font-family="Times,serif" font-size="14.00">data &#45;3.0000</text>
<polyline fill="none" stroke="black" points="958.75,-83 958.75,-118.5"/>
<text text-anchor="middle" x="1001.62" y="-95.7" font-family="Times,serif" font-size="14.00">grad &#45;0.0197</text>
</g>
<!-- 4391952864&#45;&gt;4391953056**2 -->
<g id="edge15" class="edge">
<title>4391952864&#45;&gt;4391953056**2</title>
<path fill="none" stroke="black" d="M1044.58,-100.5C1053.07,-100.5 1061.35,-100.5 1068.95,-100.5"/>
<polygon fill="black" stroke="black" points="1068.76,-104 1078.76,-100.5 1068.76,-97 1068.76,-104"/>
</g>
<!-- 4391952864+&#45;&gt;4391952864 -->
<g id="edge7" class="edge">
<title>4391952864+&#45;&gt;4391952864</title>
<path fill="none" stroke="black" d="M838.94,-100.5C846.02,-100.5 854.11,-100.5 862.67,-100.5"/>
<polygon fill="black" stroke="black" points="862.62,-104 872.62,-100.5 862.62,-97 862.62,-104"/>
</g>
</g>
</svg>
