<?xml version="1.0" encoding="UTF-8" standalone="no"?>
<!DOCTYPE svg PUBLIC "-//W3C//DTD SVG 1.1//EN"
 "http://www.w3.org/Graphics/SVG/1.1/DTD/svg11.dtd">
<!-- Generated by graphviz version 12.2.1 (20241206.2353)
 -->
<!-- Pages: 1 -->
<svg width="1900pt" height="183pt"
 viewBox="0.00 0.00 1900.00 183.00" xmlns="http://www.w3.org/2000/svg" xmlns:xlink="http://www.w3.org/1999/xlink">
<g id="graph0" class="graph" transform="scale(1 1) rotate(0) translate(4 179)">
<polygon fill="white" stroke="none" points="-4,4 -4,-179 1896,-179 1896,4 -4,4"/>
<!-- 4389952576 -->
<g id="node1" class="node">
<title>4389952576</title>
<polygon fill="none" stroke="black" points="0,-138.5 0,-174.5 161,-174.5 161,-138.5 0,-138.5"/>
<text text-anchor="middle" x="39.88" y="-151.7" font-family="Times,serif" font-size="14.00">data 3.0000</text>
<polyline fill="none" stroke="black" points="79.75,-139 79.75,-174.5"/>
<text text-anchor="middle" x="120.38" y="-151.7" font-family="Times,serif" font-size="14.00">grad 0.0000</text>
</g>
<!-- 4391952528+ -->
<g id="node5" class="node">
<title>4391952528+</title>
<ellipse fill="none" stroke="black" cx="224" cy="-128.5" rx="27" ry="18"/>
<text text-anchor="middle" x="224" y="-123.45" font-family="Times,serif" font-size="14.00">+</text>
</g>
<!-- 4389952576&#45;&gt;4391952528+ -->
<g id="edge12" class="edge">
<title>4389952576&#45;&gt;4391952528+</title>
<path fill="none" stroke="black" d="M161.35,-140.7C170.09,-138.97 178.64,-137.28 186.46,-135.73"/>
<polygon fill="black" stroke="black" points="187.08,-139.18 196.21,-133.8 185.72,-132.31 187.08,-139.18"/>
</g>
<!-- 4391953488 -->
<g id="node2" class="node">
<title>4391953488</title>
<polygon fill="none" stroke="black" points="1731,-54.5 1731,-90.5 1892,-90.5 1892,-54.5 1731,-54.5"/>
<text text-anchor="middle" x="1770.88" y="-67.7" font-family="Times,serif" font-size="14.00">data 0.9951</text>
<polyline fill="none" stroke="black" points="1810.75,-55 1810.75,-90.5"/>
<text text-anchor="middle" x="1851.38" y="-67.7" font-family="Times,serif" font-size="14.00">grad 0.0000</text>
</g>
<!-- 4391953488tanh -->
<g id="node3" class="node">
<title>4391953488tanh</title>
<ellipse fill="none" stroke="black" cx="1668" cy="-72.5" rx="27" ry="18"/>
<text text-anchor="middle" x="1668" y="-67.45" font-family="Times,serif" font-size="14.00">tanh</text>
</g>
<!-- 4391953488tanh&#45;&gt;4391953488 -->
<g id="edge1" class="edge">
<title>4391953488tanh&#45;&gt;4391953488</title>
<path fill="none" stroke="black" d="M1695.28,-72.5C1702.4,-72.5 1710.52,-72.5 1719.08,-72.5"/>
<polygon fill="black" stroke="black" points="1719.04,-76 1729.04,-72.5 1719.04,-69 1719.04,-76"/>
</g>
<!-- 4391952528 -->
<g id="node4" class="node">
<title>4391952528</title>
<polygon fill="none" stroke="black" points="287,-110.5 287,-146.5 448,-146.5 448,-110.5 287,-110.5"/>
<text text-anchor="middle" x="326.88" y="-123.7" font-family="Times,serif" font-size="14.00">data 5.0000</text>
<polyline fill="none" stroke="black" points="366.75,-111 366.75,-146.5"/>
<text text-anchor="middle" x="407.38" y="-123.7" font-family="Times,serif" font-size="14.00">grad 0.0000</text>
</g>
<!-- 4391952672&#45; -->
<g id="node10" class="node">
<title>4391952672&#45;</title>
<ellipse fill="none" stroke="black" cx="511" cy="-128.5" rx="27" ry="18"/>
<text text-anchor="middle" x="511" y="-123.45" font-family="Times,serif" font-size="14.00">&#45;</text>
</g>
<!-- 4391952528&#45;&gt;4391952672&#45; -->
<g id="edge18" class="edge">
<title>4391952528&#45;&gt;4391952672&#45;</title>
<path fill="none" stroke="black" d="M448.35,-128.5C456.74,-128.5 464.96,-128.5 472.52,-128.5"/>
<polygon fill="black" stroke="black" points="472.28,-132 482.28,-128.5 472.28,-125 472.28,-132"/>
</g>
<!-- 4391952528+&#45;&gt;4391952528 -->
<g id="edge2" class="edge">
<title>4391952528+&#45;&gt;4391952528</title>
<path fill="none" stroke="black" d="M251.28,-128.5C258.4,-128.5 266.52,-128.5 275.08,-128.5"/>
<polygon fill="black" stroke="black" points="275.04,-132 285.04,-128.5 275.04,-125 275.04,-132"/>
</g>
<!-- 4391953056 -->
<g id="node6" class="node">
<title>4391953056</title>
<polygon fill="none" stroke="black" points="1157,-82.5 1157,-118.5 1318,-118.5 1318,-82.5 1157,-82.5"/>
<text text-anchor="middle" x="1196.88" y="-95.7" font-family="Times,serif" font-size="14.00">data 9.0000</text>
<polyline fill="none" stroke="black" points="1236.75,-83 1236.75,-118.5"/>
<text text-anchor="middle" x="1277.38" y="-95.7" font-family="Times,serif" font-size="14.00">grad 0.0000</text>
</g>
<!-- 4391953344* -->
<g id="node17" class="node">
<title>4391953344*</title>
<ellipse fill="none" stroke="black" cx="1381" cy="-72.5" rx="27" ry="18"/>
<text text-anchor="middle" x="1381" y="-67.45" font-family="Times,serif" font-size="14.00">*</text>
</g>
<!-- 4391953056&#45;&gt;4391953344* -->
<g id="edge17" class="edge">
<title>4391953056&#45;&gt;4391953344*</title>
<path fill="none" stroke="black" d="M1318.35,-84.7C1327.09,-82.97 1335.64,-81.28 1343.46,-79.73"/>
<polygon fill="black" stroke="black" points="1344.08,-83.18 1353.21,-77.8 1342.72,-76.31 1344.08,-83.18"/>
</g>
<!-- 4391953056**2 -->
<g id="node7" class="node">
<title>4391953056**2</title>
<ellipse fill="none" stroke="black" cx="1094" cy="-100.5" rx="27" ry="18"/>
<text text-anchor="middle" x="1094" y="-95.45" font-family="Times,serif" font-size="14.00">**2</text>
</g>
<!-- 4391953056**2&#45;&gt;4391953056 -->
<g id="edge3" class="edge">
<title>4391953056**2&#45;&gt;4391953056</title>
<path fill="none" stroke="black" d="M1121.28,-100.5C1128.4,-100.5 1136.52,-100.5 1145.08,-100.5"/>
<polygon fill="black" stroke="black" points="1145.04,-104 1155.04,-100.5 1145.04,-97 1145.04,-104"/>
</g>
<!-- 4374984416 -->
<g id="node8" class="node">
<title>4374984416</title>
<polygon fill="none" stroke="black" points="0,-83.5 0,-119.5 161,-119.5 161,-83.5 0,-83.5"/>
<text text-anchor="middle" x="39.88" y="-96.7" font-family="Times,serif" font-size="14.00">data 2.0000</text>
<polyline fill="none" stroke="black" points="79.75,-84 79.75,-119.5"/>
<text text-anchor="middle" x="120.38" y="-96.7" font-family="Times,serif" font-size="14.00">grad 0.0000</text>
</g>
<!-- 4374984416&#45;&gt;4391952528+ -->
<g id="edge8" class="edge">
<title>4374984416&#45;&gt;4391952528+</title>
<path fill="none" stroke="black" d="M161.35,-116.74C170.09,-118.4 178.64,-120.04 186.46,-121.53"/>
<polygon fill="black" stroke="black" points="185.73,-124.95 196.21,-123.39 187.04,-118.08 185.73,-124.95"/>
</g>
<!-- 4391952672 -->
<g id="node9" class="node">
<title>4391952672</title>
<polygon fill="none" stroke="black" points="574,-110.5 574,-146.5 739.5,-146.5 739.5,-110.5 574,-110.5"/>
<text text-anchor="middle" x="616.12" y="-123.7" font-family="Times,serif" font-size="14.00">data &#45;5.0000</text>
<polyline fill="none" stroke="black" points="658.25,-111 658.25,-146.5"/>
<text text-anchor="middle" x="698.88" y="-123.7" font-family="Times,serif" font-size="14.00">grad 0.0000</text>
</g>
<!-- 4391952864+ -->
<g id="node19" class="node">
<title>4391952864+</title>
<ellipse fill="none" stroke="black" cx="802.5" cy="-100.5" rx="27" ry="18"/>
<text text-anchor="middle" x="802.5" y="-95.45" font-family="Times,serif" font-size="14.00">+</text>
</g>
<!-- 4391952672&#45;&gt;4391952864+ -->
<g id="edge14" class="edge">
<title>4391952672&#45;&gt;4391952864+</title>
<path fill="none" stroke="black" d="M739.7,-112.54C748.5,-110.82 757.08,-109.15 764.92,-107.62"/>
<polygon fill="black" stroke="black" points="765.55,-111.07 774.7,-105.72 764.21,-104.2 765.55,-111.07"/>
</g>
<!-- 4391952672&#45;&#45;&gt;4391952672 -->
<g id="edge4" class="edge">
<title>4391952672&#45;&#45;&gt;4391952672</title>
<path fill="none" stroke="black" d="M538.37,-128.5C545.47,-128.5 553.57,-128.5 562.14,-128.5"/>
<polygon fill="black" stroke="black" points="562.09,-132 572.09,-128.5 562.09,-125 562.09,-132"/>
</g>
<!-- 4391951184 -->
<g id="node11" class="node">
<title>4391951184</title>
<polygon fill="none" stroke="black" points="287,-55.5 287,-91.5 448,-91.5 448,-55.5 287,-55.5"/>
<text text-anchor="middle" x="326.88" y="-68.7" font-family="Times,serif" font-size="14.00">data 2.0000</text>
<polyline fill="none" stroke="black" points="366.75,-56 366.75,-91.5"/>
<text text-anchor="middle" x="407.38" y="-68.7" font-family="Times,serif" font-size="14.00">grad 0.0000</text>
</g>
<!-- 4391951280* -->
<g id="node15" class="node">
<title>4391951280*</title>
<ellipse fill="none" stroke="black" cx="511" cy="-73.5" rx="27" ry="18"/>
<text text-anchor="middle" x="511" y="-68.45" font-family="Times,serif" font-size="14.00">*</text>
</g>
<!-- 4391951184&#45;&gt;4391951280* -->
<g id="edge13" class="edge">
<title>4391951184&#45;&gt;4391951280*</title>
<path fill="none" stroke="black" d="M448.35,-73.5C456.74,-73.5 464.96,-73.5 472.52,-73.5"/>
<polygon fill="black" stroke="black" points="472.28,-77 482.28,-73.5 472.28,-70 472.28,-77"/>
</g>
<!-- 4391953296 -->
<g id="node12" class="node">
<title>4391953296</title>
<polygon fill="none" stroke="black" points="1157,-27.5 1157,-63.5 1318,-63.5 1318,-27.5 1157,-27.5"/>
<text text-anchor="middle" x="1196.88" y="-40.7" font-family="Times,serif" font-size="14.00">data 0.3333</text>
<polyline fill="none" stroke="black" points="1236.75,-28 1236.75,-63.5"/>
<text text-anchor="middle" x="1277.38" y="-40.7" font-family="Times,serif" font-size="14.00">grad 0.0000</text>
</g>
<!-- 4391953296&#45;&gt;4391953344* -->
<g id="edge11" class="edge">
<title>4391953296&#45;&gt;4391953344*</title>
<path fill="none" stroke="black" d="M1318.35,-60.74C1327.09,-62.4 1335.64,-64.04 1343.46,-65.53"/>
<polygon fill="black" stroke="black" points="1342.73,-68.95 1353.21,-67.39 1344.04,-62.08 1342.73,-68.95"/>
</g>
<!-- 4372559776 -->
<g id="node13" class="node">
<title>4372559776</title>
<polygon fill="none" stroke="black" points="287,-0.5 287,-36.5 448,-36.5 448,-0.5 287,-0.5"/>
<text text-anchor="middle" x="326.88" y="-13.7" font-family="Times,serif" font-size="14.00">data 1.0000</text>
<polyline fill="none" stroke="black" points="366.75,-1 366.75,-36.5"/>
<text text-anchor="middle" x="407.38" y="-13.7" font-family="Times,serif" font-size="14.00">grad 0.0000</text>
</g>
<!-- 4372559776&#45;&gt;4391951280* -->
<g id="edge16" class="edge">
<title>4372559776&#45;&gt;4391951280*</title>
<path fill="none" stroke="black" d="M422.58,-36.96C431.12,-40.04 439.83,-43.29 448,-46.5 457.76,-50.34 468.27,-54.79 477.8,-58.95"/>
<polygon fill="black" stroke="black" points="476.12,-62.04 486.68,-62.88 478.95,-55.63 476.12,-62.04"/>
</g>
<!-- 4391951280 -->
<g id="node14" class="node">
<title>4391951280</title>
<polygon fill="none" stroke="black" points="576.25,-55.5 576.25,-91.5 737.25,-91.5 737.25,-55.5 576.25,-55.5"/>
<text text-anchor="middle" x="616.12" y="-68.7" font-family="Times,serif" font-size="14.00">data 2.0000</text>
<polyline fill="none" stroke="black" points="656,-56 656,-91.5"/>
<text text-anchor="middle" x="696.62" y="-68.7" font-family="Times,serif" font-size="14.00">grad 0.0000</text>
</g>
<!-- 4391951280&#45;&gt;4391952864+ -->
<g id="edge9" class="edge">
<title>4391951280&#45;&gt;4391952864+</title>
<path fill="none" stroke="black" d="M737.61,-88.5C747.1,-90.28 756.4,-92.03 764.84,-93.61"/>
<polygon fill="black" stroke="black" points="764.16,-97.05 774.64,-95.45 765.46,-90.17 764.16,-97.05"/>
</g>
<!-- 4391951280*&#45;&gt;4391951280 -->
<g id="edge5" class="edge">
<title>4391951280*&#45;&gt;4391951280</title>
<path fill="none" stroke="black" d="M538.37,-73.5C546.17,-73.5 555.2,-73.5 564.7,-73.5"/>
<polygon fill="black" stroke="black" points="564.52,-77 574.52,-73.5 564.52,-70 564.52,-77"/>
</g>
<!-- 4391953344 -->
<g id="node16" class="node">
<title>4391953344</title>
<polygon fill="none" stroke="black" points="1444,-54.5 1444,-90.5 1605,-90.5 1605,-54.5 1444,-54.5"/>
<text text-anchor="middle" x="1483.88" y="-67.7" font-family="Times,serif" font-size="14.00">data 3.0000</text>
<polyline fill="none" stroke="black" points="1523.75,-55 1523.75,-90.5"/>
<text text-anchor="middle" x="1564.38" y="-67.7" font-family="Times,serif" font-size="14.00">grad 0.0000</text>
</g>
<!-- 4391953344&#45;&gt;4391953488tanh -->
<g id="edge10" class="edge">
<title>4391953344&#45;&gt;4391953488tanh</title>
<path fill="none" stroke="black" d="M1605.35,-72.5C1613.74,-72.5 1621.96,-72.5 1629.52,-72.5"/>
<polygon fill="black" stroke="black" points="1629.28,-76 1639.28,-72.5 1629.28,-69 1629.28,-76"/>
</g>
<!-- 4391953344*&#45;&gt;4391953344 -->
<g id="edge6" class="edge">
<title>4391953344*&#45;&gt;4391953344</title>
<path fill="none" stroke="black" d="M1408.28,-72.5C1415.4,-72.5 1423.52,-72.5 1432.08,-72.5"/>
<polygon fill="black" stroke="black" points="1432.04,-76 1442.04,-72.5 1432.04,-69 1432.04,-76"/>
</g>
<!-- 4391952864 -->
<g id="node18" class="node">
<title>4391952864</title>
<polygon fill="none" stroke="black" points="865.5,-82.5 865.5,-118.5 1031,-118.5 1031,-82.5 865.5,-82.5"/>
<text text-anchor="middle" x="907.62" y="-95.7" font-family="Times,serif" font-size="14.00">data &#45;3.0000</text>
<polyline fill="none" stroke="black" points="949.75,-83 949.75,-118.5"/>
<text text-anchor="middle" x="990.38" y="-95.7" font-family="Times,serif" font-size="14.00">grad 0.0000</text>
</g>
<!-- 4391952864&#45;&gt;4391953056**2 -->
<g id="edge15" class="edge">
<title>4391952864&#45;&gt;4391953056**2</title>
<path fill="none" stroke="black" d="M1031.2,-100.5C1039.64,-100.5 1047.9,-100.5 1055.48,-100.5"/>
<polygon fill="black" stroke="black" points="1055.27,-104 1065.27,-100.5 1055.27,-97 1055.27,-104"/>
</g>
<!-- 4391952864+&#45;&gt;4391952864 -->
<g id="edge7" class="edge">
<title>4391952864+&#45;&gt;4391952864</title>
<path fill="none" stroke="black" d="M829.87,-100.5C836.97,-100.5 845.07,-100.5 853.64,-100.5"/>
<polygon fill="black" stroke="black" points="853.59,-104 863.59,-100.5 853.59,-97 853.59,-104"/>
</g>
</g>
</svg>
